<mxfile host="app.diagrams.net" agent="Mozilla/5.0 (X11; Linux x86_64) AppleWebKit/537.36 (KHTML, like Gecko) Chrome/134.0.0.0 Safari/537.36" version="28.0.0">
  <diagram name="PÃ¡gina-1" id="NhEo0DLCaknJdFC8N-nL">
    <mxGraphModel dx="1243" dy="650" grid="1" gridSize="10" guides="1" tooltips="1" connect="1" arrows="1" fold="1" page="1" pageScale="1" pageWidth="827" pageHeight="1169" math="0" shadow="0">
      <root>
        <mxCell id="0" />
        <mxCell id="1" parent="0" />
        <mxCell id="cHoE7PxNt6vrXDY2uAkb-1" value="&lt;font style=&quot;vertical-align: inherit;&quot;&gt;&lt;font style=&quot;vertical-align: inherit;&quot;&gt;Contribuinte&lt;/font&gt;&lt;/font&gt;" style="swimlane;whiteSpace=wrap;html=1;" vertex="1" parent="1">
          <mxGeometry x="150" y="72.5" width="230" height="140" as="geometry" />
        </mxCell>
        <mxCell id="cHoE7PxNt6vrXDY2uAkb-2" value="&lt;font style=&quot;vertical-align: inherit;&quot;&gt;&lt;font style=&quot;vertical-align: inherit;&quot;&gt;-nome&lt;/font&gt;&lt;/font&gt;&lt;div&gt;&lt;font style=&quot;vertical-align: inherit;&quot;&gt;&lt;font style=&quot;vertical-align: inherit;&quot;&gt;&lt;font style=&quot;vertical-align: inherit;&quot;&gt;&lt;font style=&quot;vertical-align: inherit;&quot;&gt;-codigo&lt;/font&gt;&lt;/font&gt;&lt;/font&gt;&lt;/font&gt;&lt;/div&gt;&lt;div&gt;&lt;font style=&quot;vertical-align: inherit;&quot;&gt;&lt;font style=&quot;vertical-align: inherit;&quot;&gt;&lt;font style=&quot;vertical-align: inherit;&quot;&gt;&lt;font style=&quot;vertical-align: inherit;&quot;&gt;+consultarImoveis()&lt;/font&gt;&lt;/font&gt;&lt;/font&gt;&lt;/font&gt;&lt;/div&gt;&lt;div&gt;&lt;font style=&quot;vertical-align: inherit;&quot;&gt;&lt;font style=&quot;vertical-align: inherit;&quot;&gt;&lt;font style=&quot;vertical-align: inherit;&quot;&gt;&lt;font style=&quot;vertical-align: inherit;&quot;&gt;&lt;br&gt;&lt;/font&gt;&lt;/font&gt;&lt;/font&gt;&lt;/font&gt;&lt;/div&gt;" style="whiteSpace=wrap;html=1;" vertex="1" parent="cHoE7PxNt6vrXDY2uAkb-1">
          <mxGeometry x="10" y="30" width="210" height="90" as="geometry" />
        </mxCell>
        <mxCell id="cHoE7PxNt6vrXDY2uAkb-3" style="edgeStyle=orthogonalEdgeStyle;rounded=0;orthogonalLoop=1;jettySize=auto;html=1;exitX=0.75;exitY=0;exitDx=0;exitDy=0;entryX=0.647;entryY=-0.021;entryDx=0;entryDy=0;entryPerimeter=0;" edge="1" parent="1" source="cHoE7PxNt6vrXDY2uAkb-1" target="cHoE7PxNt6vrXDY2uAkb-1">
          <mxGeometry relative="1" as="geometry" />
        </mxCell>
        <mxCell id="cHoE7PxNt6vrXDY2uAkb-5" value="&lt;u&gt;&lt;i style=&quot;font-weight: normal;&quot;&gt;Imovel&lt;/i&gt;&lt;/u&gt;" style="swimlane;whiteSpace=wrap;html=1;" vertex="1" parent="1">
          <mxGeometry x="470" y="60" width="260" height="150" as="geometry" />
        </mxCell>
        <mxCell id="cHoE7PxNt6vrXDY2uAkb-17" value="-codigo&lt;div&gt;-endereco&lt;/div&gt;&lt;div&gt;-propretario&lt;/div&gt;&lt;div&gt;&amp;lt;getter/setters&amp;gt;&lt;/div&gt;&lt;div&gt;+calculaIptu()&lt;/div&gt;" style="rounded=1;whiteSpace=wrap;html=1;" vertex="1" parent="cHoE7PxNt6vrXDY2uAkb-5">
          <mxGeometry x="10" y="25" width="230" height="115" as="geometry" />
        </mxCell>
        <mxCell id="cHoE7PxNt6vrXDY2uAkb-7" value="Lote" style="swimlane;whiteSpace=wrap;html=1;" vertex="1" parent="1">
          <mxGeometry x="400" y="310" width="170" height="110" as="geometry" />
        </mxCell>
        <mxCell id="cHoE7PxNt6vrXDY2uAkb-18" value="&lt;font style=&quot;font-size: 8px;&quot;&gt;-metragemQuadradaTerreno&lt;/font&gt;&lt;div&gt;&lt;font style=&quot;font-size: 8px;&quot;&gt;&amp;lt;getters/setters&amp;gt;&lt;/font&gt;&lt;/div&gt;&lt;div&gt;&lt;span style=&quot;font-size: 8px;&quot;&gt;+calculartIptu&lt;/span&gt;&lt;/div&gt;" style="rounded=1;whiteSpace=wrap;html=1;" vertex="1" parent="cHoE7PxNt6vrXDY2uAkb-7">
          <mxGeometry x="30" y="32.5" width="110" height="75" as="geometry" />
        </mxCell>
        <mxCell id="cHoE7PxNt6vrXDY2uAkb-9" value="Casa" style="swimlane;whiteSpace=wrap;html=1;startSize=30;" vertex="1" parent="1">
          <mxGeometry x="590" y="315" width="200" height="105" as="geometry" />
        </mxCell>
        <mxCell id="cHoE7PxNt6vrXDY2uAkb-28" value="&lt;font style=&quot;font-size: 9px;&quot;&gt;-metragemQuadradaTerreno&lt;/font&gt;&lt;div&gt;&lt;font style=&quot;font-size: 9px;&quot;&gt;-&amp;lt;getters/setters&amp;gt;&lt;/font&gt;&lt;/div&gt;&lt;div&gt;&lt;font style=&quot;font-size: 9px;&quot;&gt;+calcularIptu&lt;/font&gt;&lt;/div&gt;" style="rounded=1;whiteSpace=wrap;html=1;" vertex="1" parent="cHoE7PxNt6vrXDY2uAkb-9">
          <mxGeometry x="40" y="35" width="120" height="60" as="geometry" />
        </mxCell>
        <mxCell id="cHoE7PxNt6vrXDY2uAkb-13" value="Apartamento" style="swimlane;whiteSpace=wrap;html=1;" vertex="1" parent="1">
          <mxGeometry x="810" y="315" width="170" height="105" as="geometry" />
        </mxCell>
        <mxCell id="cHoE7PxNt6vrXDY2uAkb-30" value="&lt;font style=&quot;font-size: 9px;&quot;&gt;-metragemQuadradaApp&lt;/font&gt;&lt;div&gt;&lt;font style=&quot;font-size: 9px;&quot;&gt;-andar&lt;/font&gt;&lt;/div&gt;&lt;div&gt;&lt;font style=&quot;font-size: 9px;&quot;&gt;&amp;lt;getters/setters&amp;gt;&lt;/font&gt;&lt;/div&gt;&lt;div&gt;&lt;font style=&quot;font-size: 9px;&quot;&gt;+calcularIptu&lt;/font&gt;&lt;/div&gt;" style="rounded=1;whiteSpace=wrap;html=1;" vertex="1" parent="cHoE7PxNt6vrXDY2uAkb-13">
          <mxGeometry x="25" y="35" width="120" height="60" as="geometry" />
        </mxCell>
        <mxCell id="cHoE7PxNt6vrXDY2uAkb-14" value="" style="shape=flexArrow;endArrow=classic;html=1;rounded=0;exitX=0.125;exitY=-0.012;exitDx=0;exitDy=0;exitPerimeter=0;" edge="1" parent="1" source="cHoE7PxNt6vrXDY2uAkb-7">
          <mxGeometry width="50" height="50" relative="1" as="geometry">
            <mxPoint x="480" y="250" as="sourcePoint" />
            <mxPoint x="480" y="220" as="targetPoint" />
          </mxGeometry>
        </mxCell>
        <mxCell id="cHoE7PxNt6vrXDY2uAkb-15" value="" style="shape=flexArrow;endArrow=classic;html=1;rounded=0;" edge="1" parent="1" source="cHoE7PxNt6vrXDY2uAkb-9">
          <mxGeometry width="50" height="50" relative="1" as="geometry">
            <mxPoint x="530" y="270" as="sourcePoint" />
            <mxPoint x="620" y="220" as="targetPoint" />
          </mxGeometry>
        </mxCell>
        <mxCell id="cHoE7PxNt6vrXDY2uAkb-16" value="" style="shape=flexArrow;endArrow=classic;html=1;rounded=0;endWidth=18;endSize=7.3;" edge="1" parent="1">
          <mxGeometry width="50" height="50" relative="1" as="geometry">
            <mxPoint x="820" y="310" as="sourcePoint" />
            <mxPoint x="730" y="220" as="targetPoint" />
          </mxGeometry>
        </mxCell>
        <mxCell id="cHoE7PxNt6vrXDY2uAkb-22" value="" style="endArrow=classic;startArrow=classic;html=1;rounded=0;" edge="1" parent="1">
          <mxGeometry width="50" height="50" relative="1" as="geometry">
            <mxPoint x="380" y="142.16" as="sourcePoint" />
            <mxPoint x="470" y="142.16" as="targetPoint" />
            <Array as="points">
              <mxPoint x="420" y="142.16" />
            </Array>
          </mxGeometry>
        </mxCell>
        <mxCell id="cHoE7PxNt6vrXDY2uAkb-26" value="1" style="edgeLabel;html=1;align=center;verticalAlign=middle;resizable=0;points=[];" vertex="1" connectable="0" parent="cHoE7PxNt6vrXDY2uAkb-22">
          <mxGeometry x="-0.7241" y="-2" relative="1" as="geometry">
            <mxPoint y="-14" as="offset" />
          </mxGeometry>
        </mxCell>
        <mxCell id="cHoE7PxNt6vrXDY2uAkb-27" value="N" style="edgeLabel;html=1;align=center;verticalAlign=middle;resizable=0;points=[];" vertex="1" connectable="0" parent="cHoE7PxNt6vrXDY2uAkb-22">
          <mxGeometry x="0.6552" relative="1" as="geometry">
            <mxPoint x="-4" y="-12" as="offset" />
          </mxGeometry>
        </mxCell>
      </root>
    </mxGraphModel>
  </diagram>
</mxfile>
